<?xml version="1.0" standalone="no"?>
<!DOCTYPE svg PUBLIC "-//W3C//DTD SVG 20010904//EN"
 "http://www.w3.org/TR/2001/REC-SVG-20010904/DTD/svg10.dtd">
<svg version="1.0" xmlns="http://www.w3.org/2000/svg"
 width="380.000000pt" height="330.000000pt" viewBox="0 0 380.000000 330.000000"
 preserveAspectRatio="xMidYMid meet">

<g transform="translate(0.000000,330.000000) scale(0.100000,-0.100000)"
fill="#000000" stroke="none">
<path d="M1592 3090 c-81 -9 -86 -16 -14 -18 193 -6 446 -136 692 -356 141
-127 274 -210 408 -255 34 -12 72 -21 84 -20 16 1 12 4 -13 9 -19 5 -60 18
-90 29 l-54 21 3 240 3 241 22 -7 c12 -3 49 -17 81 -30 73 -29 86 -25 16 5
-145 63 -376 119 -572 140 -107 12 -466 12 -566 1z"/>
<path d="M1335 2990 c-518 -135 -894 -439 -991 -800 -24 -89 -25 -272 -1 -360
36 -133 137 -309 230 -398 l34 -33 6 42 c9 66 52 119 131 159 67 34 72 35 180
34 230 -1 418 -89 671 -314 240 -213 481 -330 684 -330 96 0 229 28 376 80
281 100 565 306 699 508 182 275 182 576 0 847 -47 70 -137 175 -150 175 -2 0
-4 -12 -4 -27 0 -55 -61 -133 -131 -169 -101 -51 -235 -50 -399 2 -151 47
-271 121 -445 274 -135 118 -243 194 -360 251 -195 95 -334 111 -530 59z
m-280 -824 c89 -37 67 -149 -37 -191 -23 -9 -73 -19 -110 -22 -67 -6 -68 -6
-68 -34 0 -56 63 -71 178 -42 22 5 23 3 20 -33 -4 -46 -24 -54 -143 -57 -126
-3 -165 30 -165 141 0 103 69 205 161 238 47 17 123 17 164 0z m418 9 c11 -5
12 -13 3 -45 l-10 -40 -61 0 c-54 0 -64 -3 -87 -27 -32 -35 -44 -58 -52 -106
-6 -31 -3 -41 18 -62 27 -27 52 -31 104 -16 30 9 32 8 32 -14 0 -55 -15 -72
-73 -79 -74 -10 -141 8 -172 46 -20 24 -25 41 -25 85 0 31 5 74 12 97 15 51
99 137 148 153 38 12 139 17 163 8z m349 -5 c20 -6 48 -24 62 -41 22 -26 26
-40 26 -92 -1 -147 -109 -251 -260 -251 -112 0 -166 45 -164 137 1 119 71 213
184 248 37 11 110 10 152 -1z m418 1 c0 -5 -3 -22 -6 -39 -6 -30 -9 -31 -62
-34 -39 -2 -58 -8 -66 -21 -9 -14 -2 -26 47 -72 49 -47 57 -60 57 -91 0 -55
-57 -108 -134 -124 -52 -11 -120 -9 -133 4 -2 2 -1 20 2 39 l7 35 56 -1 c67
-2 82 6 82 38 0 16 -12 33 -39 52 -98 70 -90 160 19 207 37 16 170 22 170 7z
m465 -3 c5 -4 -57 -318 -71 -365 -3 -12 -114 -20 -114 -8 0 2 9 28 21 57 l20
52 -40 -46 c-105 -118 -241 -93 -241 45 0 119 68 222 170 258 44 16 74 19 153
16 53 -2 100 -6 102 -9z m372 4 c9 -6 10 -17 2 -45 l-10 -37 -58 0 c-45 0 -65
-5 -86 -22 -34 -27 -55 -75 -55 -127 0 -56 31 -76 100 -67 l50 7 0 -40 c0 -36
-3 -41 -27 -48 -49 -13 -146 -7 -180 10 -60 32 -78 104 -49 201 34 111 122
175 246 175 30 1 61 -3 67 -7z"/>
<path d="M924 2096 c-32 -14 -64 -50 -64 -72 0 -14 71 -8 110 10 31 14 38 45
14 63 -21 16 -21 16 -60 -1z"/>
<path d="M1656 2065 c-56 -52 -75 -151 -34 -179 30 -21 66 -20 105 4 56 34 88
131 58 176 -22 34 -91 34 -129 -1z"/>
<path d="M2473 2080 c-75 -45 -108 -210 -42 -210 44 0 149 145 149 207 0 20
-5 23 -37 23 -21 0 -52 -9 -70 -20z"/>
<path d="M2791 2916 c10 -9 69 -36 69 -32 0 6 -55 36 -66 36 -4 0 -5 -2 -3 -4z"/>
<path d="M2803 2433 c9 -2 25 -2 35 0 9 3 1 5 -18 5 -19 0 -27 -2 -17 -5z"/>
<path d="M1580 1245 c13 -14 26 -25 28 -25 3 0 -5 11 -18 25 -13 14 -26 25
-28 25 -3 0 5 -11 18 -25z"/>
<path d="M1635 1200 c10 -11 20 -20 23 -20 3 0 -3 9 -13 20 -10 11 -20 20 -23
20 -3 0 3 -9 13 -20z"/>
<path d="M1679 1167 c13 -16 171 -124 195 -133 10 -4 5 -18 -22 -60 l-36 -56
-95 5 c-76 4 -84 4 -36 -3 72 -9 435 -11 520 -1 l60 6 -78 13 c-148 25 -294
88 -441 189 -44 30 -74 48 -67 40z"/>
<path d="M1508 943 c7 -3 16 -2 19 1 4 3 -2 6 -13 5 -11 0 -14 -3 -6 -6z"/>
<path d="M1563 933 c9 -2 25 -2 35 0 9 3 1 5 -18 5 -19 0 -27 -2 -17 -5z"/>
</g>
</svg>
